<svg width="16" height="16" viewBox="0 0 16 16" fill="none" xmlns="http://www.w3.org/2000/svg">
<path d="M8.00002 10.6667C7.84425 10.667 7.6933 10.6127 7.57335 10.5133L3.57335 7.18001C3.43721 7.06685 3.35159 6.90424 3.33534 6.72796C3.31909 6.55168 3.37353 6.37616 3.48669 6.24001C3.59985 6.10387 3.76245 6.01825 3.93874 6.002C4.11502 5.98574 4.29054 6.04018 4.42669 6.15334L8.00002 9.14001L11.5734 6.26001C11.6415 6.20463 11.72 6.16328 11.8042 6.13832C11.8885 6.11337 11.9768 6.10531 12.0641 6.1146C12.1515 6.12389 12.2361 6.15036 12.3132 6.19247C12.3903 6.23459 12.4583 6.29153 12.5134 6.36001C12.5744 6.42856 12.6206 6.50898 12.6492 6.59623C12.6777 6.68347 12.6879 6.77567 12.6791 6.86705C12.6704 6.95843 12.6428 7.04701 12.5983 7.12725C12.5537 7.20748 12.493 7.27765 12.42 7.33334L8.42002 10.5533C8.29663 10.637 8.14876 10.6769 8.00002 10.6667Z" fill="#2A547B"/>
</svg>
