<svg width="216" height="45" viewBox="0 0 216 45" fill="none" xmlns="http://www.w3.org/2000/svg">
<path d="M10.6402 26.3494C12.2737 26.3494 14.1098 25.8097 16.1485 24.7303L17.5529 26.279C15.9554 27.3899 13.9436 28.0456 11.5177 28.246H10.6402C8.54749 28.3539 6.50949 27.7609 4.52617 26.467C2.70851 25.2815 1.79968 23.4796 1.79968 21.0612C1.79968 18.7672 2.71774 17.0037 4.55386 15.7708C6.46334 14.4924 8.53802 13.8839 10.7779 13.9454H12.1269C12.4943 14.0083 13.054 14.1094 13.8061 14.2488C14.0632 14.3108 14.4856 14.4426 15.0735 14.6444C15.9136 14.9344 16.7249 15.3009 17.4968 15.7391L16.0924 17.3935C14.2748 16.391 12.5397 15.8895 10.8872 15.8891C9.17941 15.8891 7.74729 16.3856 6.59091 17.3787C5.43452 18.3718 4.85632 19.592 4.85632 21.0394C4.85632 22.5327 5.37038 23.7797 6.39849 24.7803C7.48104 25.8269 8.89492 26.3499 10.6402 26.3494Z" fill="#2A547B"/>
<path d="M10.1638 28.957C8.1047 28.957 6.07973 28.317 4.13995 27.0506C2.12065 25.7334 1.0968 23.7187 1.0968 21.0619C1.0968 18.5325 2.12704 16.5564 4.15983 15.1935C6.19262 13.8306 8.41995 13.1844 10.7978 13.2491H12.1873L12.2463 13.2597C12.6155 13.3221 13.1787 13.4237 13.9361 13.5645L13.9744 13.5723C14.2585 13.6427 14.6923 13.7764 15.3043 13.9869C16.1891 14.2924 17.0434 14.6786 17.8561 15.1407L18.5704 15.5631L16.2586 18.2833L15.7516 18.0017C14.0476 17.0619 12.4145 16.5853 10.8887 16.5853C9.34227 16.5853 8.08766 17.0168 7.05458 17.9045C6.05061 18.7662 5.56354 19.7905 5.56354 21.0365C5.56354 22.3473 5.99878 23.4075 6.89483 24.279C7.84839 25.2005 9.0753 25.6497 10.643 25.6497C12.1525 25.6497 13.8942 25.1323 15.8191 24.1122L16.3054 23.8545L18.6095 26.3966L17.9598 26.8485C16.2657 28.027 14.1207 28.7303 11.5831 28.9401H11.5242H10.6579C10.4932 28.9513 10.3285 28.957 10.1638 28.957ZM10.4918 14.6402C8.50374 14.6402 6.64277 15.2146 4.94795 16.3495C3.30355 17.4533 2.50335 18.995 2.50335 21.0619C2.50335 23.2498 3.29147 24.8274 4.91316 25.8848C6.75921 27.0893 8.67201 27.6497 10.604 27.5504H10.6402H11.4922C13.4334 27.3871 15.1048 26.9112 16.4737 26.1347L15.9881 25.5983C14.0454 26.5606 12.2484 27.0485 10.6402 27.0485C8.7139 27.0485 7.12204 26.4536 5.9079 25.2801C4.74347 24.1467 4.15344 22.7211 4.15344 21.04C4.15344 19.3885 4.81873 17.9799 6.13156 16.8535C7.41456 15.7518 9.01495 15.1935 10.8887 15.1935C12.4955 15.1935 14.1867 15.6377 15.922 16.5149L16.4013 15.9517C15.8914 15.7085 15.3688 15.4923 14.8357 15.304C14.1683 15.0753 13.8282 14.976 13.6585 14.9345C12.9598 14.8049 12.4297 14.709 12.068 14.6465H10.7779C10.6828 14.6416 10.5869 14.6402 10.4918 14.6402Z" fill="#2A547B"/>
<path d="M23.5839 26.0179V28.0847H21.282V17.7701H23.5839V23.6835L30.3291 17.7701H32.631V28.0847H30.3305V20.1045L23.5839 26.0179Z" fill="#2A547B"/>
<path d="M33.336 28.7823H29.6269V21.6497L24.2875 26.3297V28.7802H20.5784V17.0738H24.2875V22.1354L30.0642 17.0738H33.336V28.7823ZM31.0341 27.3871H31.9288V18.4677H30.5968L22.8803 25.2308V18.4677H21.9856V27.3871H22.8803V25.7032L31.0341 18.5564V27.3871Z" fill="#2A547B"/>
<path d="M36.098 28.0847L39.6701 19.3927H38.2408V17.7701H47.3425V28.0847H45.0407V19.3927H42.5556C42.3263 19.3927 42.1495 19.4301 42.0266 19.504L41.7881 19.7708L41.7355 19.8151L38.4822 28.1967L36.098 28.0847Z" fill="#2A547B"/>
<path d="M38.9529 28.9168L35.0741 28.7352L38.6242 20.0904H37.5379V17.0738H48.0462V28.7823H44.337V20.0904H42.5535C42.5138 20.0901 42.4742 20.0922 42.4349 20.0967L42.3341 20.2093L38.9529 28.9168ZM37.1246 27.4342L38.0051 27.4758L41.1412 19.3969L41.2932 19.2695L41.5679 18.9619L41.6588 18.9077C41.896 18.7669 42.1892 18.6965 42.5535 18.6965H45.7443V27.3871H46.6389V18.4677H38.9444V18.693H40.7195L37.1246 27.4342Z" fill="#2A547B"/>
<path d="M53.7711 17.8369L54.6181 17.6807L55.7818 17.5476L56.9179 17.5033C57.5373 17.477 58.1579 17.5143 58.7696 17.6145C60.0746 17.8074 61.0095 18.3185 61.5742 19.1477C61.9448 19.6968 62.1301 20.3565 62.1301 21.1266V28.0847H59.9603V27.5919C59.0775 28.0523 57.7995 28.2823 56.1262 28.2818H55.6498C54.5743 28.2818 53.4897 28.0075 52.3958 27.4589C51.4074 26.9694 50.9135 26.1173 50.9139 24.9027C50.9139 23.5985 51.5224 22.6796 52.7394 22.146C54.0974 21.5532 55.4204 21.2939 56.7084 21.3681L57.1344 21.3899H57.5817L58.7462 21.523L59.8311 21.7236C59.8311 21.0421 59.7693 20.5529 59.6458 20.2558C59.4512 19.7968 59.0543 19.4709 58.4551 19.278L58.0291 19.1893L57.603 19.1189L56.756 19.0745C56.3148 19.045 55.7196 19.1116 54.9703 19.2745C54.2827 19.4197 53.6062 19.6129 52.946 19.8524V18.0594L53.7711 17.8369ZM56.6587 26.6176H56.8973L57.1614 26.5958C57.461 26.5958 57.946 26.5289 58.6162 26.3952C59.163 26.2915 59.5688 26.1657 59.8339 26.0178V23.3941L59.5954 23.3498L59.305 23.2611L58.1931 23.1055L56.5529 23.0386C55.7991 23.0483 55.054 23.1992 54.3568 23.4835C53.6866 23.7496 53.3514 24.2239 53.3514 24.9063C53.3514 25.5286 53.7396 25.9878 54.5159 26.2839C55.0957 26.5064 55.81 26.6176 56.6587 26.6176Z" fill="#2A547B"/>
<path d="M56.1262 28.983H55.6498C54.4669 28.983 53.2655 28.681 52.0784 28.0847C50.8572 27.4807 50.2103 26.3811 50.2103 24.9063C50.2103 23.3287 50.9864 22.1552 52.4554 21.5117C53.911 20.8781 55.3559 20.5966 56.7489 20.6747L57.1501 20.6958L57.662 20.7007L59.0778 20.8788C59.0639 20.7587 59.0357 20.6405 58.994 20.5269C58.9557 20.436 58.8342 20.1488 58.2698 19.958L57.9027 19.8813L57.5335 19.8229L56.7241 19.7799C56.3407 19.7546 55.8067 19.8173 55.1258 19.9651C54.471 20.1034 53.8269 20.2871 53.1981 20.5149L52.2474 20.8669V17.5265L53.6433 17.1506L54.5372 16.988L55.7542 16.8507L56.8902 16.8064C57.5553 16.778 58.2215 16.8179 58.8783 16.9253C60.3757 17.1464 61.4805 17.7631 62.1579 18.7557C62.6066 19.4202 62.8338 20.2171 62.8338 21.1245V28.7824H59.2567V28.6191C58.4104 28.8626 57.3744 28.983 56.1262 28.983ZM56.2853 22.0566C55.2302 22.0566 54.136 22.3023 53.0192 22.788C52.0606 23.2104 51.614 23.8813 51.614 24.9063C51.614 25.8553 51.9612 26.4691 52.7068 26.838C53.7008 27.3357 54.6863 27.5877 55.6462 27.5877H56.1227C57.6755 27.5877 58.8555 27.3822 59.6316 26.9781L60.6626 26.441V27.3871H61.4251V21.1266C61.4251 20.4931 61.2831 19.9714 60.9884 19.5364C60.5362 18.8718 59.7757 18.4684 58.6646 18.3044C58.0993 18.2114 57.5259 18.1763 56.9534 18.1995L55.833 18.2439L54.719 18.3713L53.9252 18.517L53.6511 18.5916V18.8943C54.0208 18.7883 54.4106 18.6902 54.8205 18.6001C55.6434 18.422 56.2924 18.3516 56.805 18.3854L57.7145 18.4368L58.1732 18.5072L58.6702 18.6156C59.4704 18.8725 60.0193 19.3343 60.2926 19.9869C60.4566 20.3833 60.5326 20.9338 60.5326 21.7243V22.5649L58.639 22.2129L57.5392 22.0869H57.0933L56.6673 22.0643C56.543 22.0608 56.4145 22.0566 56.2853 22.0566ZM56.9243 27.3153H56.6587C55.7293 27.3153 54.9227 27.1872 54.2631 26.9351C52.9283 26.4255 52.6478 25.5504 52.6478 24.9063C52.6478 23.9426 53.1619 23.2069 54.0956 22.8359C54.8762 22.5199 55.7099 22.3527 56.5529 22.3431L58.2918 22.4135L59.5116 22.5937L59.7651 22.6712L60.5376 22.8155V26.4241L60.1826 26.624C59.8482 26.812 59.3795 26.9605 58.7512 27.0795C58.0568 27.2203 57.5441 27.2907 57.1962 27.2907L56.9243 27.3153ZM56.521 23.7356C55.8656 23.7495 55.2184 23.8839 54.6125 24.1319C54.1481 24.3171 54.0523 24.5754 54.0523 24.9063C54.0523 25.0422 54.0523 25.3611 54.7658 25.6335C55.2628 25.8236 55.9019 25.92 56.6559 25.92H56.8646L57.1586 25.8982C57.3318 25.8982 57.701 25.8658 58.475 25.7116C58.6953 25.6717 58.9132 25.6193 59.1275 25.5547V23.9411L58.1271 23.8003L56.521 23.7356Z" fill="#2A547B"/>
<path d="M115.093 18.6395C114.814 18.1728 114.424 17.7804 113.957 17.4962C113.466 17.1865 112.844 16.983 112.111 16.8915C111.636 16.8211 111.287 16.8282 111.046 16.9126C110.785 17.0035 110.642 17.1112 110.608 17.2435C110.581 17.3414 110.598 17.4878 110.828 17.6272C110.993 17.7285 111.227 17.768 111.544 17.7419C112.166 17.6983 112.642 17.7792 112.96 17.9813C113.115 18.0793 113.249 18.2076 113.353 18.3583C113.458 18.5091 113.53 18.6792 113.566 18.8584C113.657 19.2491 113.65 19.7032 113.546 20.2087C113.425 20.7624 113.238 21.3 112.99 21.8102C112.593 22.5638 112.144 23.2894 111.647 23.982C111.151 24.6944 110.595 25.3644 109.986 25.9848C108.59 27.3998 107.448 28.0376 106.599 27.8855C105.933 27.7785 105.534 27.4505 105.382 26.8838C105.225 26.3016 105.232 25.5863 105.403 24.7584C105.605 23.8327 105.907 22.9311 106.303 22.0693C106.719 21.1379 107.189 20.2309 107.709 19.3526C107.922 18.9725 108.171 18.5649 108.451 18.1404C108.721 17.7293 108.999 17.2956 109.3 16.8141C112.47 15.9623 115.206 15.0302 117.433 14.0439C119.599 13.0977 121.62 11.8517 123.433 10.3431C124.23 9.67562 124.973 8.94864 125.658 8.16856C126.283 7.46418 126.845 6.70713 127.338 5.90598C127.749 5.24464 128.071 4.53211 128.293 3.78701C128.484 3.10979 128.506 2.50719 128.354 1.9968C128.201 1.48642 127.838 1.07389 127.282 0.793004C126.726 0.512118 125.946 0.400186 124.943 0.44524C123.921 0.488888 122.916 0.708276 121.97 1.0936C120.992 1.49701 120.062 2.00475 119.195 2.60785C118.247 3.2673 117.349 3.99382 116.507 4.78173C115.622 5.60397 114.728 6.4755 113.846 7.37377C112.451 8.85963 111.169 10.4463 110.012 12.1207C109.018 13.554 108.085 14.9514 107.237 16.2875C106.6 16.3444 105.958 16.3134 105.33 16.1953C104.731 16.0777 104.392 15.7729 104.293 15.2801V15.2097C104.298 15.1339 104.288 15.0578 104.263 14.9861C104.238 14.9144 104.198 14.8484 104.146 14.7923C104.051 14.7001 103.93 14.6388 103.798 14.6163C103.653 14.5911 103.503 14.6185 103.377 14.6937C103.305 14.7346 103.244 14.7915 103.198 14.8599C103.152 14.9284 103.123 15.0064 103.113 15.0879C103.054 15.3301 103.085 15.5853 103.201 15.8067C103.317 16.0359 103.472 16.2435 103.659 16.4206C104.053 16.8193 104.561 17.0879 105.114 17.19C105.606 17.2875 106.109 17.3187 106.61 17.2829C106.063 18.1629 105.513 19.0717 104.977 19.9869C104.42 20.9345 103.865 21.844 103.328 22.6909C102.79 23.5378 102.274 24.3192 101.8 25.0062C101.394 25.6047 100.952 26.1785 100.476 26.7247C100.272 26.9647 100.329 27.147 100.413 27.2562C100.484 27.3505 100.645 27.4807 100.92 27.2892C101.333 26.9654 101.879 26.3037 102.589 25.2562C102.968 24.7028 103.383 24.0772 103.833 23.3794L103.827 23.3927C103.546 23.9535 103.309 24.5346 103.117 25.1309C102.924 25.7532 102.897 26.3438 103.035 26.8866C103.168 27.4259 103.485 27.9029 103.933 28.2368C104.386 28.5839 105.024 28.8063 105.828 28.8971C106.038 28.9205 106.25 28.932 106.461 28.9316C107.133 28.9316 107.909 28.8288 108.776 28.6254C109.617 28.4424 110.418 28.1117 111.141 27.649C111.865 27.1885 112.522 26.6311 113.092 25.9925C113.651 25.3684 114.135 24.6815 114.533 23.9461C114.911 23.2544 115.204 22.5206 115.407 21.7602C115.54 21.2262 115.588 20.6745 115.549 20.1256C115.511 19.6027 115.355 19.0949 115.093 18.6395ZM110.177 15.5476C110.706 14.8272 111.31 14.0118 111.987 13.1013C112.723 12.1115 113.529 11.0886 114.381 10.0601C115.233 9.03163 116.133 8.00101 117.055 7.00137C117.934 6.04339 118.88 5.1474 119.885 4.31992C120.765 3.58858 121.726 2.95674 122.747 2.43608C123.683 1.97076 124.598 1.73211 125.466 1.73211C126.263 1.73211 126.73 1.96724 126.893 2.45087C127.059 2.94365 126.979 3.58568 126.653 4.3516C126.322 5.1309 125.784 5.99538 125.055 6.9197C124.293 7.87898 123.441 8.76434 122.51 9.56384C120.712 11.1172 118.691 12.3965 116.513 13.3597C114.47 14.272 112.35 15.0041 110.177 15.5476Z" fill="#2A547B"/>
<path d="M215.382 22.0721C215.366 22.029 215.341 21.9901 215.308 21.9581C215.274 21.9261 215.235 21.9018 215.191 21.8869C215.02 21.8165 214.765 21.8278 214.539 22.2445C214.324 22.6054 214.022 23.1071 213.634 23.7496C213.234 24.4059 212.799 25.0404 212.33 25.6504C211.876 26.2496 211.361 26.8007 210.792 27.2949C210.261 27.7517 209.746 27.984 209.259 27.984C208.812 27.984 208.543 27.8475 208.436 27.5666C208.321 27.2674 208.302 26.9013 208.379 26.4796C208.467 26.0207 208.607 25.5731 208.797 25.1456C208.966 24.7484 209.159 24.3617 209.375 23.9876C209.718 23.3878 210.117 22.7345 210.561 22.046C211.004 21.3575 211.447 20.7085 211.886 20.1044C212.283 19.5532 212.711 19.0248 213.169 18.5219C213.575 18.0812 213.925 17.7919 214.207 17.6624C214.227 17.6537 214.242 17.6383 214.251 17.6192C214.26 17.6 214.261 17.5783 214.255 17.5582C214.248 17.5382 214.235 17.5212 214.217 17.5101C214.199 17.499 214.178 17.4946 214.157 17.4976C213.88 17.5409 213.597 17.5355 213.322 17.4814C213.046 17.4258 212.766 17.3856 212.486 17.3611C212.21 17.3319 211.932 17.3558 211.666 17.4314C211.441 17.5099 211.237 17.6382 211.069 17.8067C211.027 17.8468 210.986 17.8897 210.944 17.9369C210.883 17.7876 210.799 17.6486 210.694 17.5251C210.41 17.1949 209.989 16.9802 209.434 16.8866C208.879 16.7929 208.237 16.8408 207.506 17.0231C207.016 17.1373 206.55 17.336 206.129 17.6103C205.713 17.8797 205.334 18.2034 205.004 18.5726C204.681 18.9344 204.4 19.3314 204.168 19.756C203.947 20.1523 203.775 20.5735 203.656 21.0105C203.572 21.3514 203.544 21.7034 203.573 22.0531C203.603 22.4322 203.752 22.7926 203.999 23.083C204.25 23.3878 204.643 23.6307 205.167 23.8045C205.301 23.8481 205.439 23.8823 205.578 23.9066C205.137 24.547 204.657 25.1608 204.141 25.7447C203.61 26.3556 203.014 26.9075 202.363 27.3906C202.088 27.6034 201.777 27.7647 201.444 27.8665C201.066 27.9707 200.673 28.0098 200.282 27.9819C200.024 27.987 199.768 27.9266 199.539 27.8066C199.333 27.6981 199.15 27.5503 199.002 27.3716C198.866 27.2086 198.769 27.0179 198.718 26.8133C198.667 26.6235 198.693 26.4218 198.789 26.2502C199.044 25.82 199.133 25.4758 199.059 25.2026C198.985 24.9295 198.832 24.7429 198.603 24.6535C198.385 24.5677 198.129 24.5662 197.841 24.6535C197.554 24.7386 197.304 24.9166 197.131 25.159C196.986 25.3671 196.899 25.6103 196.881 25.863C196.533 26.2966 196.15 26.7007 195.735 27.071C195.15 27.5842 194.553 27.8454 193.968 27.8454C193.698 27.8249 193.477 27.6778 193.289 27.3941C193.102 27.1104 193.1 26.6197 193.282 25.9158C193.359 25.5548 193.479 25.204 193.637 24.8704C193.823 24.455 194.046 24.001 194.299 23.5215C194.552 23.0421 194.822 22.543 195.104 22.0347C195.385 21.5265 195.68 21.0259 195.969 20.5634C196.262 20.0488 196.519 19.6117 196.732 19.2632C196.916 18.9587 197.122 18.6684 197.349 18.3945C197.532 18.1762 197.737 17.9762 197.96 17.7975C198.173 17.6293 198.43 17.4455 198.72 17.2428C198.736 17.2322 198.747 17.2171 198.754 17.1995C198.76 17.1819 198.76 17.1629 198.754 17.1452C198.749 17.1274 198.738 17.1119 198.723 17.1008C198.708 17.0898 198.689 17.0838 198.671 17.0837H196.496C196.163 17.0749 195.831 17.1289 195.517 17.2428C195.233 17.3611 194.997 17.5715 194.849 17.8398C194.475 18.5121 194.048 19.2477 193.582 20.0362C193.115 20.8246 192.628 21.6201 192.112 22.424C191.607 23.216 191.073 23.9939 190.525 24.7366C190.026 25.4213 189.471 26.0635 188.865 26.6563C188.234 27.2758 187.663 27.6708 187.168 27.832C186.693 27.9869 186.336 27.9587 186.108 27.7496C185.879 27.5405 185.782 27.1463 185.834 26.5909C185.885 26.02 186.153 25.2913 186.627 24.4283C186.817 24.1094 187.048 23.6982 187.313 23.2076C187.579 22.7169 187.865 22.222 188.159 21.7525C188.451 21.2167 188.788 20.6493 189.164 20.0629C189.382 19.6692 189.623 19.288 189.884 18.9211C190.07 18.6613 190.275 18.4156 190.498 18.1861C190.678 18.002 190.87 17.8292 191.073 17.6687C191.273 17.5148 191.485 17.3759 191.706 17.2533C191.723 17.2439 191.736 17.2291 191.744 17.2113C191.751 17.1935 191.753 17.1738 191.748 17.1551C191.743 17.1365 191.732 17.1199 191.717 17.1082C191.701 17.0964 191.682 17.09 191.663 17.09H189.207C188.873 17.0812 188.541 17.1352 188.228 17.2491C187.943 17.3674 187.708 17.5776 187.56 17.8454C187.263 18.3656 186.911 18.9563 186.514 19.6053L185.307 21.5652C185.172 21.7679 185.049 21.9756 184.94 22.1819C184.835 22.3807 184.714 22.5715 184.58 22.7528C184.514 22.8502 184.473 22.9625 184.462 23.0794L184.078 23.7165C183.677 24.3739 183.242 25.0096 182.773 25.6208C182.319 26.2198 181.804 26.7709 181.236 27.2653C180.704 27.7229 180.189 27.9545 179.703 27.9545C179.256 27.9545 178.987 27.8179 178.879 27.537C178.765 27.2378 178.746 26.8718 178.823 26.4501C178.911 25.9912 179.051 25.5437 179.24 25.116C179.409 24.7186 179.602 24.3318 179.819 23.958C180.16 23.3617 180.559 22.7085 181.005 22.0164C181.451 21.3244 181.89 20.6789 182.331 20.0749C182.727 19.5235 183.155 18.9952 183.613 18.4923C184.019 18.0517 184.369 17.7623 184.652 17.6328C184.671 17.624 184.687 17.6086 184.695 17.5894C184.704 17.5703 184.705 17.5486 184.699 17.5286C184.693 17.5086 184.679 17.4914 184.662 17.4802C184.644 17.469 184.623 17.4644 184.602 17.4674C184.325 17.5114 184.042 17.5059 183.767 17.4512C183.489 17.3956 183.209 17.3556 182.927 17.3315C182.264 17.3097 181.727 17.4638 181.336 17.7919C180.945 18.1199 180.502 18.6888 179.991 19.5033C179.642 20.0425 179.334 20.5264 179.066 20.9548C178.807 21.3667 178.549 21.7884 178.299 22.2079C178.275 22.2502 178.249 22.2924 178.224 22.3353C178.167 22.3896 178.106 22.4402 178.042 22.4867C177.874 22.6078 177.639 22.6486 177.337 22.6057C176.881 22.5588 176.434 22.4412 176.015 22.2572C175.553 22.0599 175.06 21.9487 174.558 21.9292C174.339 21.9091 174.118 21.9238 173.904 21.9728C174.338 21.3005 174.776 20.6606 175.205 20.0721C175.602 19.5209 176.03 18.9925 176.488 18.4895C176.894 18.0488 177.244 17.7595 177.526 17.63C177.546 17.6213 177.561 17.6059 177.57 17.5868C177.579 17.5676 177.58 17.5459 177.574 17.5258C177.568 17.5058 177.554 17.4886 177.537 17.4774C177.519 17.4662 177.497 17.4616 177.477 17.4645C177.199 17.5086 176.916 17.5031 176.641 17.4483C176.364 17.3928 176.083 17.3528 175.802 17.3287C175.135 17.3083 174.603 17.461 174.211 17.7891C173.819 18.1171 173.377 18.6859 172.862 19.4997C172.289 20.3846 171.735 21.2836 171.201 22.1875C171.14 22.257 171.088 22.3339 171.047 22.4163C170.962 22.5747 170.865 22.7507 170.763 22.9344C170.692 23.0541 170.628 23.1738 170.56 23.2935C170.422 23.5335 170.276 23.7862 170.105 24.0678C169.702 24.7385 169.233 25.3683 168.706 25.9481C168.159 26.5524 167.528 27.0769 166.833 27.506C166.127 27.9379 165.312 28.162 164.483 28.1523C163.844 28.1523 163.387 27.9763 163.124 27.6292C162.85 27.2629 162.689 26.8265 162.658 26.3719C162.62 25.8702 162.66 25.3657 162.776 24.876C162.864 24.4682 162.995 24.0709 163.169 23.6912C163.507 23.678 163.844 23.638 164.176 23.5715C164.602 23.4927 165.07 23.3843 165.554 23.2484C166.029 23.116 166.496 22.9569 166.953 22.7718C167.356 22.6114 167.744 22.4166 168.114 22.1896C168.721 21.8129 169.281 21.3653 169.781 20.8563C170.199 20.4391 170.544 19.9568 170.805 19.4286C171.025 18.9527 171.102 18.5085 171.032 18.108C170.963 17.7074 170.725 17.3646 170.327 17.1013C169.843 16.8197 169.291 16.675 168.731 16.6831C168.11 16.6898 167.494 16.8 166.91 17.0091C166.249 17.2444 165.621 17.5601 165.038 17.9489C164.428 18.3493 163.858 18.8061 163.334 19.3132C162.876 19.7671 162.455 20.2572 162.077 20.7789C161.704 21.2923 161.372 21.8337 161.083 22.398C160.982 22.5951 160.893 22.7943 160.809 22.9943C160.529 23.4497 160.241 23.9094 159.94 24.3691C159.498 25.0504 158.989 25.687 158.421 26.2699C157.878 26.8281 157.254 27.3027 156.569 27.6778C155.901 28.0411 155.123 28.2248 154.256 28.2248C153.432 28.2248 152.84 27.9707 152.497 27.468C152.144 26.9484 151.96 26.3344 151.968 25.7081C151.972 25.2003 152.052 24.6958 152.206 24.2114C152.361 23.7111 152.554 23.2234 152.785 22.7528C152.997 22.3163 153.238 21.894 153.506 21.4885C153.71 21.1748 153.93 20.8719 154.166 20.581C154.452 20.2222 154.759 19.88 155.085 19.556C155.422 19.2176 155.789 18.9096 156.181 18.636C156.541 18.3829 156.921 18.159 157.317 17.9665C157.655 17.7995 158.027 17.7109 158.405 17.7074C158.752 17.7074 158.998 17.8222 159.157 18.0594C159.316 18.2966 159.304 18.6965 159.126 19.2519C159.008 19.5824 158.829 19.8883 158.599 20.1544C158.338 20.4656 158.109 20.7246 157.898 20.9457C157.882 20.9633 157.873 20.9866 157.874 21.0105C157.874 21.0222 157.877 21.0338 157.883 21.0443C157.888 21.0548 157.896 21.0641 157.905 21.0717C158.019 21.1689 158.154 21.2381 158.299 21.2739C158.445 21.3096 158.597 21.3107 158.743 21.2773C159.065 21.212 159.367 21.0731 159.625 20.8718C159.906 20.6571 160.151 20.399 160.349 20.1073C160.54 19.8427 160.675 19.5427 160.746 19.2252C160.857 18.4994 160.665 17.9038 160.178 17.4568C159.691 17.0098 158.922 16.7908 157.884 16.7908C156.876 16.7992 155.884 17.0403 154.987 17.4948C154.214 17.8798 153.508 18.3853 152.896 18.9922C152.641 19.1541 152.387 19.3237 152.137 19.4976C151.822 19.7151 151.53 19.927 151.268 20.1256C150.994 20.3325 150.784 20.4867 150.624 20.5986C149.978 21.0748 149.363 21.5921 148.784 22.1474C148.418 22.4959 148.086 22.8204 147.79 23.1175C148.162 22.5043 148.552 21.8996 148.956 21.3118C149.467 20.5767 149.932 19.8117 150.35 19.021C150.55 18.6606 150.592 18.3283 150.475 18.0355C150.359 17.7426 150.095 17.53 149.694 17.4082C149.428 17.3343 149.09 17.4082 148.662 17.6356C148.195 17.8921 147.753 18.1895 147.34 18.524C146.87 18.8964 146.374 19.3132 145.867 19.7616C145.36 20.21 144.877 20.6557 144.455 21.0675C144.013 21.4962 143.65 21.8566 143.345 22.1685L143.258 22.2586C143.477 21.6396 143.612 20.9941 143.658 20.3396C143.699 19.6729 143.58 19.0724 143.303 18.5515C143.025 18.0305 142.567 17.6025 141.936 17.2794C141.305 16.9563 140.455 16.7965 139.399 16.7965C138.292 16.7965 137.326 16.964 136.527 17.2935C135.741 17.613 135.022 18.0744 134.406 18.6543C133.776 19.261 133.224 19.9427 132.762 20.6838C132.363 21.3174 131.958 22.0017 131.555 22.7176C131.281 23.1865 130.994 23.6637 130.688 24.1523C130.294 24.7855 129.859 25.3927 129.386 25.97C128.974 26.4784 128.499 26.9337 127.973 27.3251C127.494 27.6729 127.016 27.8496 126.562 27.8496C126.293 27.8292 126.071 27.6813 125.884 27.3969C125.696 27.1125 125.695 26.6176 125.877 25.9186C125.954 25.5565 126.073 25.2045 126.232 24.8697C126.419 24.4515 126.641 23.9967 126.893 23.5166C127.145 23.0365 127.415 22.536 127.698 22.0249C127.98 21.5138 128.274 21.014 128.563 20.5465C128.858 20.0263 129.115 19.587 129.327 19.2421C129.51 18.9368 129.716 18.6455 129.943 18.3706C130.126 18.1516 130.331 17.9512 130.555 17.7722C130.768 17.6053 131.022 17.4202 131.315 17.2153C131.331 17.2046 131.342 17.1893 131.348 17.1718C131.354 17.1542 131.354 17.1352 131.349 17.1175C131.343 17.0997 131.332 17.0842 131.317 17.0731C131.302 17.0621 131.284 17.0562 131.265 17.0562H129.091C128.757 17.0475 128.425 17.1013 128.112 17.2146C127.827 17.3335 127.592 17.5441 127.443 17.8123C127.069 18.4839 126.643 19.2203 126.176 20.0094C125.709 20.7986 125.218 21.5898 124.708 22.3924C124.203 23.1843 123.669 23.9622 123.12 24.7049C122.621 25.3891 122.065 26.0306 121.458 26.6226C120.828 27.2414 120.256 27.6384 119.761 27.8031C119.286 27.9608 118.93 27.9327 118.701 27.7208C118.472 27.5089 118.375 27.1125 118.427 26.5571C118.479 25.9862 118.747 25.2575 119.221 24.3945C119.41 24.0749 119.641 23.6645 119.907 23.1731C120.172 22.6817 120.458 22.1875 120.752 21.7187C121.045 21.1815 121.383 20.6141 121.758 20.0291C121.976 19.6351 122.216 19.2537 122.478 18.8866C122.664 18.6269 122.87 18.3815 123.093 18.1523C123.274 17.968 123.466 17.7952 123.668 17.6349C123.869 17.4809 124.08 17.342 124.302 17.2196C124.319 17.2101 124.332 17.1953 124.34 17.1775C124.347 17.1597 124.349 17.14 124.344 17.1213C124.339 17.1027 124.328 17.0862 124.312 17.0744C124.297 17.0626 124.278 17.0562 124.258 17.0562H121.802C121.469 17.0475 121.137 17.1013 120.823 17.2146C120.556 17.3209 120.339 17.5152 120.157 17.8088C120.112 17.8792 115.734 25.366 116.159 27.2421C116.227 27.5519 116.381 27.8365 116.605 28.0629C116.804 28.266 117.038 28.4328 117.295 28.5557C117.539 28.6703 117.799 28.747 118.066 28.7831C118.303 28.8156 118.542 28.8328 118.782 28.8344C119.317 28.8243 119.841 28.6877 120.312 28.436C120.851 28.1581 121.353 27.8127 121.803 27.4082C122.284 26.9786 122.731 26.5126 123.139 26.0143C123.416 25.6757 123.68 25.3329 123.927 24.9907C123.801 25.3982 123.733 25.8212 123.727 26.2473C123.727 26.7993 123.817 27.273 123.997 27.6553C124.168 28.0299 124.457 28.3394 124.821 28.5374C125.205 28.7413 125.635 28.8441 126.071 28.8359C126.82 28.833 127.551 28.6103 128.173 28.1959C128.845 27.7551 129.448 27.2194 129.964 26.6057C130.504 25.9705 130.993 25.2935 131.424 24.581C131.857 23.8637 132.237 23.2083 132.553 22.6324C132.566 22.6099 132.573 22.5902 132.584 22.5684C132.821 22.1868 133.064 21.8041 133.315 21.4202C133.757 20.7388 134.266 20.1022 134.834 19.5194C135.377 18.9611 136.001 18.4866 136.685 18.1115C137.354 17.7482 138.132 17.5645 138.998 17.5645C139.823 17.5645 140.414 17.8186 140.758 18.3213C141.111 18.8409 141.295 19.4549 141.286 20.0812C141.283 20.5893 141.203 21.0941 141.048 21.5786C140.894 22.0789 140.701 22.5666 140.47 23.0372C140.258 23.4717 140.017 23.8924 139.75 24.2966C139.547 24.609 139.328 24.9109 139.094 25.2012C138.794 25.5434 138.477 25.8897 138.15 26.2297C137.823 26.5707 137.464 26.8786 137.076 27.1491C136.711 27.4047 136.325 27.6285 135.921 27.8179C135.588 27.9823 135.223 28.0719 134.851 28.0805C134.503 28.0805 134.257 27.9664 134.099 27.7285C133.94 27.4906 133.951 27.0949 134.129 26.536C134.248 26.2055 134.427 25.8995 134.657 25.6335C134.91 25.3315 135.146 25.0654 135.358 24.8429C135.366 24.8343 135.373 24.8241 135.377 24.8129C135.381 24.8018 135.383 24.7899 135.382 24.778C135.381 24.7662 135.378 24.7546 135.373 24.7439C135.368 24.7333 135.36 24.7239 135.351 24.7162C135.237 24.6196 135.102 24.5507 134.956 24.5151C134.81 24.4796 134.658 24.4783 134.512 24.5113C134.19 24.5767 133.888 24.7155 133.63 24.9168C133.346 25.1336 133.096 25.3905 132.887 25.6792C132.664 25.984 132.537 26.2832 132.51 26.5627C132.397 27.2899 132.59 27.8848 133.078 28.3318C133.565 28.7788 134.333 28.9978 135.372 28.9978C136.38 28.9898 137.372 28.7487 138.27 28.2938C139.25 27.8023 140.121 27.1227 140.833 26.2945C141.308 25.7579 141.737 25.1831 142.116 24.5761C142.298 24.3269 142.461 24.1206 142.605 23.9594C142.842 23.6947 143.217 23.3688 143.721 22.9893C144.461 22.4128 145.042 21.9629 145.452 21.6518C145.862 21.3406 146.028 21.2533 146.099 21.2245C146.066 21.323 146.021 21.4174 145.966 21.5061C145.805 21.7877 145.563 22.2234 145.242 22.807C144.866 23.4406 144.52 24.0615 144.213 24.6556C143.888 25.2971 143.662 25.9827 143.54 26.6901C143.428 27.209 143.507 27.6701 143.775 28.0601C143.897 28.2488 144.066 28.4031 144.266 28.5077C144.466 28.6123 144.689 28.6638 144.915 28.657C144.934 28.657 144.953 28.6506 144.969 28.6389C144.984 28.6272 144.995 28.6108 145 28.5923C145.132 28.1065 145.419 27.5229 145.852 26.8577C146.312 26.1598 146.813 25.4905 147.355 24.8535C147.916 24.1931 148.503 23.5631 149.101 22.9816C149.698 22.4001 150.222 21.9327 150.642 21.6025C150.784 21.4983 150.937 21.385 151.091 21.2646C151.08 21.2822 151.069 21.2998 151.058 21.3174C150.651 21.9795 150.312 22.6804 150.046 23.4096C149.799 24.0698 149.648 24.7618 149.598 25.4645C149.557 26.1319 149.676 26.7317 149.953 27.2526C150.231 27.7736 150.688 28.2023 151.319 28.524C151.951 28.8457 152.799 29.0076 153.856 29.0076C154.963 29.0076 155.93 28.8408 156.729 28.5106C157.516 28.1882 158.235 27.7231 158.85 27.1393C159.36 26.6473 159.819 26.1048 160.217 25.5201C160.217 25.5821 160.21 25.6454 160.21 25.706C160.238 26.8133 160.65 27.6504 161.436 28.1952C162.222 28.7401 163.13 29.0055 164.164 29.0055C165.3 29.0055 166.283 28.7943 167.084 28.3867C167.395 28.2249 167.695 28.0416 167.98 27.8383C167.759 28.2171 167.535 28.5963 167.309 28.9759C167.299 28.9923 167.295 29.0112 167.298 29.03C167.3 29.0488 167.308 29.0664 167.321 29.0801C167.329 29.0887 167.339 29.0955 167.35 29.1002C167.361 29.1049 167.373 29.1074 167.385 29.1076C167.399 29.1076 167.414 29.104 167.426 29.097C167.604 28.9975 167.805 28.9429 168.009 28.9379C168.21 28.9379 168.456 28.9267 168.754 28.9041C169.084 28.912 169.414 28.8885 169.739 28.8337C169.975 28.7845 170.183 28.6228 170.363 28.3487C170.779 27.5391 171.118 26.8908 171.368 26.4212C171.603 25.9826 171.794 25.618 171.936 25.3357C172.067 25.0717 172.188 24.8464 172.296 24.6648C172.403 24.4832 172.538 24.2466 172.7 23.9524C172.825 23.7327 172.959 23.5039 173.101 23.2688C173.168 23.2139 173.239 23.1651 173.314 23.1231C173.52 23.0077 173.756 22.9585 173.99 22.9823C174.461 23.0116 174.922 23.1296 175.348 23.3301C175.802 23.5413 176.293 23.6639 176.794 23.6912C177.025 23.7129 177.258 23.6943 177.483 23.6363C177.261 24.0369 177.009 24.4867 176.722 24.9893C176.472 25.5254 176.414 26.1294 176.555 26.7028C176.691 27.2984 176.872 27.7531 177.097 28.0587C177.34 28.3578 177.645 28.6021 177.991 28.7753C178.298 28.9237 178.635 29.0017 178.976 29.0034C179.777 29.001 180.556 28.7467 181.202 28.2769C181.895 27.7827 182.523 27.2037 183.07 26.5536C183.248 26.3424 183.418 26.1312 183.585 25.9122C183.563 26.0066 183.535 26.1009 183.52 26.1938C183.465 26.5546 183.479 26.9224 183.561 27.278C183.633 27.5838 183.787 27.8643 184.008 28.0889C184.207 28.287 184.441 28.4482 184.697 28.5648C184.942 28.6752 185.202 28.7487 185.468 28.7831C185.705 28.8144 185.944 28.8309 186.184 28.8323C186.718 28.8222 187.243 28.6856 187.714 28.4339C188.253 28.156 188.754 27.8105 189.205 27.4061C189.687 26.9775 190.134 26.5122 190.543 26.0143C190.821 25.6757 191.085 25.3329 191.331 24.9907C191.206 25.3983 191.138 25.8213 191.132 26.2473C191.132 26.7993 191.223 27.273 191.402 27.6553C191.572 28.031 191.861 28.3418 192.224 28.5409C192.609 28.7449 193.039 28.8476 193.475 28.8394C193.972 28.8385 194.463 28.7367 194.919 28.5402C195.386 28.3399 195.82 28.0731 196.209 27.7482C196.51 27.497 196.795 27.2268 197.061 26.9393C197.164 27.1744 197.286 27.4005 197.427 27.6152C198.032 28.5402 199.14 29.0083 200.722 29.0083C201.365 29.0115 202 28.8634 202.574 28.5761C203.17 28.2725 203.72 27.8861 204.207 27.4286C204.742 26.9265 205.224 26.3723 205.647 25.7743C206.062 25.1949 206.479 24.5867 206.888 23.9658C206.957 23.962 207.028 23.9571 207.101 23.951C206.913 24.2797 206.707 24.6373 206.484 25.0281C206.237 25.5601 206.144 26.15 206.215 26.7317C206.286 27.3315 206.428 27.7876 206.659 28.0988C206.905 28.3891 207.21 28.6243 207.554 28.7887C207.862 28.9318 208.197 29.0068 208.537 29.0083C209.335 29.0068 210.112 28.759 210.762 28.2994C211.458 27.8146 212.087 27.2406 212.632 26.5923C213.19 25.9343 213.698 25.2351 214.149 24.5008C214.59 23.782 214.964 23.1548 215.258 22.6366C215.39 22.3895 215.431 22.2058 215.382 22.0721ZM208.674 17.7342C208.722 17.7342 208.769 17.7342 208.816 17.7384C209.295 17.7595 209.61 17.8792 209.754 18.0904C209.898 18.3016 209.937 18.5965 209.861 18.9541C209.783 19.3266 209.61 19.763 209.347 20.2502C209.217 20.4909 209.075 20.7394 208.921 20.9929C208.637 21.43 208.363 21.8503 208.117 22.2417C207.917 22.5599 207.711 22.8985 207.504 23.2512C206.776 23.3378 206.219 23.3111 205.848 23.1703C205.478 23.0295 205.233 22.8415 205.11 22.6029C204.982 22.3511 204.929 22.0682 204.958 21.7877C204.975 21.5164 205.041 21.2503 205.152 21.002C205.348 20.5635 205.594 20.1493 205.887 19.7679C206.222 19.3181 206.539 18.9232 206.83 18.5881C207.075 18.2947 207.388 18.0651 207.743 17.9193C208.038 17.7976 208.354 17.7347 208.674 17.7342ZM163.559 22.9042C163.749 22.5972 164.038 22.1685 164.419 21.6257C164.855 21.0034 165.343 20.4187 165.878 19.8778C166.701 19.0534 167.4 18.46 167.957 18.1143C168.513 17.7687 168.936 17.5969 169.242 17.5863H169.277C169.539 17.5863 169.692 17.6905 169.758 17.9137C169.833 18.165 169.806 18.4888 169.678 18.876C169.551 19.2632 169.301 19.7081 168.947 20.1706C168.57 20.656 168.122 21.083 167.618 21.4378C167.244 21.6843 166.851 21.9024 166.444 22.0904C166.049 22.2736 165.642 22.4305 165.226 22.5599C164.873 22.6715 164.514 22.761 164.149 22.8281C163.914 22.8668 163.717 22.8929 163.556 22.9042H163.559Z" fill="#2A547B"/>
<path d="M100.76 22.3705C100.646 23.4151 100.251 24.4101 99.6171 25.2519C98.9729 26.1015 98.1628 26.8138 97.2349 27.3462C96.235 27.9178 95.1461 28.3203 94.0129 28.5374C92.8169 28.7767 91.5912 28.8353 90.3776 28.7113C89.4782 28.6174 88.6657 28.5094 87.94 28.3874C87.2144 28.2654 86.5534 28.1342 85.957 27.9939C85.3605 27.8531 84.8145 27.7064 84.3189 27.5539C83.8233 27.4014 83.3552 27.2395 82.9145 27.0682C81.9437 27.7443 80.8563 28.2384 79.7059 28.5261C78.577 28.8044 77.3515 28.8748 76.0295 28.7373C75.0932 28.6434 74.3595 28.4351 73.8284 28.1122C73.2973 27.7893 72.9522 27.4185 72.7932 26.9999C72.716 26.7973 72.6799 26.5815 72.687 26.3651C72.694 26.1486 72.7441 25.9356 72.8344 25.7384C73.0185 25.316 73.3584 24.9652 73.854 24.6859C74.3496 24.4067 74.9921 24.2368 75.7817 24.1762C76.5707 24.1148 77.4796 24.2304 78.5081 24.5233C78.7642 24.6007 79.0854 24.7164 79.4716 24.8704C79.8579 25.0243 80.2527 25.1864 80.6559 25.3568C81.0602 25.5267 81.4457 25.6924 81.8126 25.8538C82.1797 26.0164 82.4736 26.1432 82.6937 26.2361C83.7385 25.3809 84.6605 24.3883 85.4344 23.2857C86.2509 22.1359 87.0494 20.9363 87.83 19.687C88.6105 18.4377 89.423 17.1912 90.2675 15.9475C91.1031 14.7156 92.0729 13.5787 93.1594 12.5571C91.7596 11.8518 90.2522 11.3799 88.6976 11.1604C87.0325 10.9228 85.3392 10.9583 83.6856 11.2653C82.4189 11.4962 81.299 11.8316 80.3258 12.2713C79.3526 12.7111 78.5356 13.2038 77.8748 13.7497C77.2121 14.2974 76.7071 14.8643 76.3596 15.4505C76.0122 16.0366 75.8333 16.5958 75.8228 17.128C75.8073 17.6396 75.9784 18.1396 76.3049 18.536C76.6363 18.9448 77.1411 19.2341 77.8194 19.404C78.6274 19.6199 79.3389 19.6469 79.9537 19.485C80.514 19.3497 81.0423 19.1077 81.5094 18.7725C81.8942 18.4975 82.2178 18.1469 82.4601 17.7426C82.6708 17.3733 82.7855 17.0879 82.8045 16.8866C82.8222 16.7634 82.928 16.7127 83.1211 16.7359C83.3143 16.7592 83.3917 16.8767 83.3547 17.095C83.2658 17.66 83.0121 18.1868 82.6248 18.6106C82.2276 19.0533 81.7447 19.4124 81.2048 19.6666C80.6418 19.9321 80.0358 20.0966 79.4148 20.1523C78.7843 20.2154 78.1474 20.1524 77.5418 19.9672C76.7338 19.7353 76.0775 19.3688 75.5729 18.8676C75.0683 18.3663 74.7469 17.8032 74.6087 17.178C74.471 16.5534 74.5398 15.894 74.8153 15.1999C75.0908 14.5057 75.6141 13.8461 76.3852 13.221C77.1563 12.5958 78.1844 12.0367 79.4695 11.5434C80.7546 11.0502 82.3434 10.6878 84.2359 10.4565C85.9146 10.2404 87.6154 10.2561 89.2898 10.5029C90.8922 10.7324 92.4542 11.184 93.9298 11.8447L94.6185 11.1738C94.7715 11.0513 94.9325 10.9392 95.1006 10.838C95.3113 10.7071 95.5361 10.5759 95.7751 10.4445C96.0142 10.3131 96.2392 10.1936 96.4504 10.0862C96.6041 10.0015 96.7652 9.93086 96.9317 9.87498C97.3729 9.72151 97.6117 9.69805 97.6482 9.80458C97.6844 9.91229 97.5381 10.051 97.2072 10.2206C97.0276 10.3261 96.8571 10.4462 96.6974 10.5797C96.5945 10.6608 96.4981 10.7498 96.4092 10.8458C96.2071 11.0926 95.9957 11.3472 95.7751 11.6096C95.5546 11.8719 95.3342 12.1418 95.1141 12.4191C96.0262 12.9265 96.8765 13.5362 97.6482 14.2361C98.3861 14.9046 99.0216 15.6763 99.5347 16.5268C100.042 17.3732 100.409 18.2947 100.622 19.2562C100.845 20.2792 100.891 21.3321 100.76 22.3705ZM81.978 26.6979C81.3153 26.436 80.6635 26.1699 80.0226 25.8996C79.3033 25.603 78.5686 25.3445 77.8216 25.1252C77.1589 24.9243 76.5944 24.8589 76.1281 24.9288C75.6619 24.9987 75.2901 25.1374 75.0127 25.3448C74.7568 25.5273 74.5763 25.7955 74.5045 26.0998C74.4327 26.4041 74.4745 26.7238 74.6222 26.9999C74.7685 27.2773 75.0118 27.5239 75.3521 27.7398C75.6924 27.9557 76.1466 28.0716 76.7146 28.0875C77.658 28.1237 78.6013 28.0142 79.5107 27.763C80.3774 27.5188 81.2072 27.1606 81.978 26.6979ZM99.0249 22.417C99.1358 21.5078 99.108 20.5873 98.9425 19.6863C98.7835 18.8238 98.4964 17.9894 98.0905 17.2104C97.6775 16.4269 97.1586 15.7029 96.5483 15.0584C95.9223 14.3927 95.2198 13.802 94.4552 13.2984C93.6472 14.3628 92.8257 15.4852 91.9907 16.6655C91.1557 17.8459 90.3158 18.999 89.4709 20.1249C88.6259 21.2512 87.7952 22.3116 86.9787 23.3061C86.2573 24.1995 85.4704 25.0388 84.6243 25.8172C84.4406 25.9866 84.2659 26.137 84.1003 26.2685C83.9346 26.3999 83.7602 26.5273 83.577 26.6507C84.5305 27.0013 85.5057 27.291 86.4966 27.518C87.5796 27.7729 88.8647 27.962 90.352 28.0854C91.5453 28.1793 92.6468 28.0866 93.6564 27.8073C94.6064 27.557 95.5057 27.1459 96.3147 26.5923C97.0486 26.0895 97.6758 25.4487 98.1608 24.7063C98.6151 24.0155 98.9101 23.2338 99.0249 22.417Z" fill="#2A547B"/>
<path d="M77.3133 29.0646C76.8752 29.0642 76.4375 29.0407 76.0019 28.9942C75.0313 28.8985 74.2524 28.6761 73.6886 28.3325C73.1064 27.9805 72.7223 27.5581 72.5462 27.09C72.457 26.8562 72.4151 26.6073 72.4231 26.3575C72.431 26.1077 72.4885 25.8619 72.5924 25.6342C72.7983 25.159 73.1788 24.7627 73.7241 24.4571C74.251 24.1615 74.9361 23.9791 75.7612 23.9151C76.5862 23.851 77.527 23.9714 78.5807 24.2713C78.8476 24.3515 79.1792 24.4712 79.5704 24.6275C79.9617 24.7838 80.3515 24.945 80.759 25.1153C81.1666 25.2857 81.5507 25.4518 81.9199 25.6145C82.2086 25.7416 82.4519 25.8475 82.6498 25.932C83.6248 25.1138 84.4883 24.1734 85.2186 23.1344C86.0259 21.9988 86.829 20.7929 87.6057 19.549C88.3825 18.3051 89.2033 17.0464 90.0489 15.8032C90.8255 14.6594 91.7161 13.596 92.7072 12.6289C91.4268 12.0271 90.0626 11.619 88.6601 11.4181C87.0234 11.1858 85.3594 11.2205 83.734 11.5209C82.4943 11.7475 81.3853 12.0791 80.4367 12.5064C79.4881 12.9337 78.6858 13.4216 78.0453 13.9496C77.4049 14.4776 76.9199 15.0253 76.5884 15.5828C76.2646 16.127 76.0963 16.6486 76.0913 17.1316C76.0759 17.5838 76.2274 18.0261 76.5174 18.3755C76.8092 18.7373 77.2714 18.9985 77.8905 19.1534C78.6538 19.3568 79.3255 19.3843 79.8921 19.235C80.4197 19.1062 80.9172 18.8777 81.3576 18.562C81.7128 18.308 82.012 17.9846 82.2366 17.6117C82.4751 17.1935 82.5376 16.9725 82.5476 16.8605C82.5802 16.6353 82.7549 16.4269 83.1589 16.474C83.2319 16.4795 83.303 16.5 83.3676 16.5344C83.4321 16.5687 83.4887 16.616 83.5338 16.6733C83.58 16.7402 83.6118 16.8159 83.6269 16.8957C83.6421 16.9754 83.6403 17.0574 83.6218 17.1365C83.5238 17.7497 83.2482 18.3215 82.8287 18.7824C82.4081 19.2493 81.8978 19.6283 81.3277 19.8975C80.7366 20.1758 80.1007 20.3486 79.449 20.4079C78.7838 20.4738 78.112 20.4073 77.473 20.2122C76.6303 19.9707 75.9295 19.5786 75.3948 19.0478C74.879 18.5542 74.5193 17.9223 74.3596 17.2294C74.2112 16.5557 74.2886 15.8398 74.579 15.0999C74.8694 14.36 75.4239 13.6652 76.227 13.014C77.0158 12.3755 78.0773 11.7968 79.383 11.2949C80.6887 10.793 82.3054 10.4248 84.2111 10.1918C85.9135 9.97387 87.638 9.98974 89.3361 10.2389C90.902 10.4654 92.4303 10.8989 93.8802 11.5279L94.4404 10.9823C94.6065 10.8465 94.7823 10.7227 94.9665 10.612C95.1819 10.4783 95.411 10.3448 95.6538 10.2115C95.8966 10.0782 96.1238 9.95734 96.3354 9.84892C96.5049 9.75682 96.6827 9.68069 96.8665 9.62154C97.3011 9.46878 97.5545 9.43851 97.7242 9.51946C97.766 9.53922 97.8034 9.56701 97.8342 9.60121C97.865 9.63541 97.8887 9.67534 97.9039 9.71869C98.031 10.0953 97.5432 10.3459 97.3358 10.4522C97.1737 10.5488 97.0196 10.658 96.875 10.7789C96.7862 10.8485 96.7025 10.9242 96.6244 11.0056C96.4178 11.2576 96.2062 11.5131 95.9854 11.7757C95.8297 11.9634 95.6739 12.1528 95.5182 12.3438C96.3451 12.8306 97.1187 13.4013 97.8265 14.0467C98.5827 14.7328 99.2345 15.5241 99.7613 16.3959C100.846 18.2024 101.29 20.3171 101.022 22.4029C100.901 23.4922 100.489 24.5296 99.828 25.4082C99.1628 26.2856 98.3264 27.0213 97.3685 27.5715C96.3432 28.1573 95.2271 28.5705 94.0655 28.7943C92.8432 29.0376 91.5909 29.0974 90.3507 28.9717C89.4489 28.8788 88.6232 28.769 87.8954 28.6451C87.1676 28.5212 86.4903 28.3867 85.8974 28.2487C85.3046 28.1108 84.7387 27.9587 84.2402 27.8038C83.788 27.663 83.3541 27.5152 82.9494 27.3617C81.9818 28.0159 80.9056 28.4958 79.77 28.7795C78.9658 28.9733 78.1408 29.069 77.3133 29.0646ZM76.2 24.4184C76.0637 24.4184 75.9309 24.424 75.8024 24.4339C75.0547 24.4923 74.4434 24.6521 73.9833 24.9098C73.541 25.1576 73.2364 25.473 73.0773 25.8376C73 26.0042 72.957 26.1844 72.9508 26.3676C72.9446 26.5509 72.9753 26.7335 73.0411 26.9048C73.1753 27.2632 73.4856 27.5926 73.9641 27.8841C74.4611 28.1854 75.1633 28.3832 76.0558 28.4712C77.3431 28.6064 78.5494 28.5381 79.6429 28.2692C80.7626 27.9887 81.8213 27.508 82.7669 26.8506C82.8025 26.8261 82.8435 26.8107 82.8865 26.8057C82.9295 26.8006 82.973 26.8062 83.0133 26.8218C83.4443 26.9879 83.9108 27.1498 84.4007 27.3019C84.8906 27.454 85.4324 27.599 86.0203 27.7362C86.6082 27.8735 87.2656 28.0038 87.9877 28.127C88.7098 28.2501 89.5178 28.3564 90.4075 28.448C91.5948 28.5689 92.7938 28.5117 93.964 28.2783C95.0683 28.0661 96.1295 27.6739 97.1044 27.1175C98.0016 26.6023 98.7851 25.9136 99.4084 25.0921C100.014 24.2868 100.391 23.3358 100.5 22.3375C100.756 20.366 100.337 18.3665 99.3104 16.6592C98.8102 15.8306 98.1909 15.0786 97.4722 14.4269C96.7152 13.7409 95.8814 13.1433 94.9871 12.6458C94.9541 12.6271 94.9256 12.6015 94.9035 12.5709C94.8813 12.5403 94.8661 12.5053 94.8587 12.4683C94.8514 12.4313 94.8522 12.3932 94.861 12.3566C94.8697 12.3199 94.8864 12.2856 94.9097 12.2558C95.1312 11.9742 95.3532 11.7025 95.5757 11.4406C95.7982 11.1787 96.0086 10.9258 96.2069 10.6817C96.3048 10.5719 96.413 10.4715 96.53 10.3818C96.5775 10.3417 96.6258 10.303 96.672 10.265L96.5704 10.3164C96.3607 10.4234 96.138 10.5407 95.9023 10.6684C95.6666 10.796 95.4458 10.9246 95.2399 11.0541C95.0819 11.1498 94.9305 11.2558 94.7869 11.3716L94.1131 12.0291C94.075 12.0662 94.0264 12.091 93.9738 12.1002C93.9212 12.1094 93.867 12.1025 93.8184 12.0805C92.3647 11.4309 90.8266 10.9859 89.2487 10.7585C87.5982 10.5166 85.9219 10.5015 84.2672 10.7134C82.4048 10.9415 80.8229 11.3019 79.5648 11.7849C78.3066 12.2678 77.2977 12.8176 76.5522 13.4216C75.8201 14.0151 75.3188 14.6444 75.0611 15.2935C74.8034 15.9425 74.7409 16.5494 74.8673 17.1238C74.9937 17.6983 75.2933 18.2213 75.7598 18.6838C76.2263 19.1463 76.8546 19.499 77.615 19.7166C78.1891 19.8916 78.7925 19.9515 79.3901 19.8925C79.9811 19.8398 80.558 19.6837 81.0941 19.4314C81.6012 19.1921 82.0552 18.8552 82.4297 18.4402C82.7824 18.053 83.0138 17.5723 83.0957 17.0569C83.1014 17.0317 83.1014 17.0055 83.0957 16.9802L83.0559 16.9872C83.0211 17.209 82.8997 17.5033 82.6874 17.875C82.4274 18.3105 82.0799 18.6884 81.6664 18.9851C81.1721 19.3419 80.6127 19.6003 80.0192 19.7461C79.3617 19.9193 78.5991 19.8918 77.7471 19.6652C77.0186 19.4835 76.4613 19.1611 76.0956 18.7078C75.7299 18.2626 75.5381 17.7019 75.5553 17.128C75.5652 16.5536 75.7583 15.9461 76.129 15.3223C76.4911 14.7134 77.0208 14.1185 77.7017 13.5539C78.3826 12.9894 79.224 12.4825 80.2123 12.0355C81.2006 11.5884 82.3516 11.2442 83.6339 11.0098C85.3162 10.699 87.0386 10.6633 88.7325 10.9042C90.3158 11.1296 91.851 11.6114 93.2767 12.3304C93.3142 12.3495 93.3465 12.3773 93.3709 12.4113C93.3954 12.4454 93.4112 12.4848 93.4171 12.5261C93.4231 12.5675 93.4189 12.6097 93.4049 12.6492C93.391 12.6886 93.3677 12.7242 93.337 12.7528C92.2652 13.7617 91.3081 14.884 90.4827 16.0995C89.6414 17.3364 88.8227 18.5909 88.0509 19.8306C87.2699 21.083 86.4591 22.298 85.6461 23.442C84.8579 24.5607 83.9202 25.5682 82.8585 26.4367C82.8213 26.4668 82.7765 26.4862 82.729 26.4929C82.6814 26.4996 82.6329 26.4933 82.5887 26.4747C82.3679 26.3811 82.0718 26.2537 81.7033 26.0911C81.3348 25.9284 80.9528 25.7644 80.551 25.5983C80.1491 25.4321 79.755 25.2674 79.3709 25.1139C78.9868 24.9605 78.6779 24.8492 78.4294 24.7746C77.6115 24.5395 76.8617 24.4212 76.2 24.4212V24.4184ZM91.2212 28.3797C90.9286 28.3797 90.6314 28.3679 90.3294 28.3445C88.8319 28.2199 87.5219 28.027 86.4335 27.7714C85.4318 27.5414 84.446 27.2482 83.4819 26.8936C83.4376 26.8764 83.3988 26.8476 83.3697 26.8102C83.3405 26.7729 83.3221 26.7284 83.3165 26.6816C83.3108 26.6347 83.318 26.5872 83.3374 26.5441C83.3568 26.5009 83.3876 26.4638 83.4266 26.4367C83.6055 26.3163 83.7759 26.1924 83.9328 26.0671C84.0897 25.9418 84.2623 25.794 84.4412 25.6285C85.2786 24.8586 86.0572 24.0283 86.7707 23.1442C87.5816 22.1586 88.418 21.09 89.2558 19.9714C90.0936 18.8528 90.9379 17.6947 91.7714 16.5177C92.605 15.3406 93.4371 14.2037 94.2416 13.1442C94.2818 13.0912 94.341 13.0554 94.407 13.0441C94.473 13.0329 94.5408 13.047 94.5966 13.0837C95.378 13.5984 96.0962 14.2018 96.7366 14.8816C97.3631 15.5435 97.8958 16.287 98.3199 17.0914C98.7379 17.8933 99.0341 18.7521 99.1989 19.6398C99.3693 20.5666 99.398 21.5135 99.2841 22.4487C99.2845 22.4503 99.2845 22.452 99.2841 22.4536C99.1623 23.3076 98.8528 24.1247 98.3774 24.8471C97.8732 25.6177 97.222 26.2832 96.4604 26.8063C95.6265 27.3765 94.6999 27.8004 93.7211 28.0594C92.9063 28.2784 92.0654 28.3871 91.2212 28.3825V28.3797ZM84.1366 26.5775C84.9312 26.8482 85.7394 27.0785 86.5577 27.2674C87.6228 27.518 88.9008 27.7067 90.3741 27.8306C91.5307 27.92 92.6114 27.8306 93.5862 27.5617C94.5068 27.3187 95.3784 26.9205 96.1629 26.3846C96.8681 25.9008 97.4711 25.285 97.9379 24.5719C98.3714 23.9132 98.654 23.1682 98.7658 22.3895C98.8732 21.5073 98.8461 20.6141 98.6856 19.7398C98.5304 18.9025 98.2512 18.0927 97.857 17.3364C97.4546 16.5743 96.9497 15.87 96.356 15.2428C95.8006 14.653 95.1837 14.1232 94.5156 13.6624C93.7623 14.6599 92.9863 15.7222 92.2074 16.8225C91.3717 18.0031 90.5218 19.1696 89.6833 20.2882C88.8447 21.4068 87.9991 22.486 87.184 23.4786C86.453 24.3806 85.6561 25.2282 84.7997 26.0143C84.613 26.1868 84.4319 26.3424 84.263 26.4761C84.2211 26.5071 84.1778 26.5409 84.1366 26.5775ZM77.0428 28.3557C76.9327 28.3557 76.8227 28.3557 76.7119 28.3508C76.0977 28.3339 75.5936 28.203 75.2145 27.9622C74.8353 27.7215 74.5613 27.4406 74.3937 27.1231C74.2166 26.793 74.1655 26.4107 74.2498 26.0464C74.334 25.682 74.548 25.3599 74.8524 25.1393C75.1619 24.9049 75.578 24.7479 76.0892 24.6718C76.6004 24.5958 77.2025 24.6662 77.8991 24.8767C78.6547 25.0996 79.3979 25.3618 80.1257 25.6623C80.7666 25.9317 81.4167 26.1971 82.0761 26.4585C82.1216 26.4767 82.161 26.507 82.1901 26.5462C82.2191 26.5853 82.2366 26.6317 82.2406 26.6802C82.2446 26.7286 82.2349 26.7772 82.2126 26.8205C82.1903 26.8638 82.1563 26.9 82.1144 26.9253C81.3243 27.3992 80.474 27.7666 79.5861 28.0178C78.7574 28.246 77.9007 28.3587 77.0406 28.3529L77.0428 28.3557ZM76.5067 25.166C76.3932 25.1656 76.2797 25.1734 76.1673 25.1893C75.7456 25.2519 75.4104 25.3751 75.1733 25.5553C74.9679 25.701 74.823 25.9157 74.7656 26.1595C74.7083 26.4033 74.7424 26.6595 74.8616 26.8802C74.9858 27.116 75.201 27.3322 75.5006 27.5222C75.8002 27.7123 76.2106 27.8137 76.7289 27.8278C77.6451 27.8625 78.5612 27.7566 79.4448 27.5138C80.1145 27.3238 80.762 27.0642 81.3767 26.7394C80.8868 26.5423 80.4024 26.3431 79.9233 26.1417C79.2118 25.8483 78.4852 25.5924 77.7464 25.3751C77.3452 25.2445 76.9268 25.1731 76.5046 25.1632L76.5067 25.166Z" fill="#2A547B"/>
<path d="M2.79227 44.8485L1.61576 44.9238L1.12798 43.109C1.1255 43.0045 1.15035 42.9011 1.20012 42.8089C1.2499 42.7168 1.32288 42.639 1.41198 42.5831C1.58672 42.4648 1.79482 42.4047 2.00627 42.4113L3.49022 37.7299H2.80079V36.8288H7.10493V42.417C7.31119 42.4144 7.51332 42.4743 7.68431 42.5887C7.88454 42.7168 7.98536 42.8851 7.98536 43.0921V43.1885L7.96406 43.3173L7.50823 44.9259L6.33101 44.8506L6.78685 43.3173H2.33643L2.79227 44.8485ZM5.97316 42.417V37.7299H4.6795C4.65505 37.7315 4.63118 37.738 4.60933 37.749C4.58748 37.76 4.56812 37.7753 4.55241 37.7939L4.47786 37.9347L3.16361 42.417H5.97316Z" fill="#E72B5C"/>
<path d="M9.92731 36.8288H14.3159V37.7299H11.0612V39.2082H14.5282V40.1093H11.0612V42.417H14.5282V43.3173H9.92731V36.8288Z" fill="#E72B5C"/>
<path d="M21.5035 37.7299H19.4366V43.3152H18.3006V37.7299H16.2351V36.8288H21.5035V37.7299Z" fill="#E72B5C"/>
<path d="M26.4438 42.5113C27.0729 42.5113 27.7796 42.2612 28.5639 41.7609L29.1049 42.4789C28.4896 42.9952 27.7157 43.3002 26.7832 43.3941H26.4438C25.6391 43.4438 24.8545 43.1691 24.0901 42.5697C23.3909 42.0206 23.0411 41.1857 23.0406 40.065C23.0406 39.002 23.394 38.1849 24.1007 37.6138C24.8353 37.0215 25.6341 36.7399 26.497 36.769H27.0161C27.1581 36.7978 27.3711 36.845 27.6629 36.9098C27.7613 36.9389 27.9239 37.0001 28.1507 37.0935C28.4785 37.2303 28.7912 37.4004 29.0836 37.6011L28.5419 38.3621C27.8423 37.8975 27.1744 37.6651 26.5382 37.6651C26.2292 37.6586 25.9222 37.7166 25.6373 37.8355C25.3524 37.9543 25.0959 38.1314 24.8846 38.355C24.4396 38.8154 24.2169 39.3807 24.2164 40.0509C24.2164 40.7432 24.4145 41.3209 24.8107 41.7841C25.2282 42.2694 25.7726 42.5118 26.4438 42.5113Z" fill="#E72B5C"/>
<path d="M33.7194 40.4205C33.6396 40.3236 33.5391 40.2455 33.4251 40.1918C33.3112 40.1381 33.1866 40.1102 33.0605 40.11H32.2638V43.3152H31.1278V36.8288H32.2638V39.2223L34.6026 36.8288H35.9425L33.5887 39.1984C33.7887 39.2177 33.9813 39.2833 34.1511 39.3899C34.297 39.4601 34.4215 39.5674 34.5118 39.701L36.9074 43.3033L35.6421 43.4117L33.7194 40.4205Z" fill="#E72B5C"/>
<path d="M39.0502 40.11V39.2089H40.1294L41.073 36.8288H42.5889L45.145 43.3152H43.8826L42.6756 40.11H40.8501L39.6182 43.3152H38.4822L39.7439 40.11H39.0502ZM42.3582 39.2089L41.7958 37.751L41.2236 39.2089H42.3582Z" fill="#E72B5C"/>
<path d="M52.427 36.8288V43.3153H51.291V40.1101H50.2536C50.1547 40.1312 49.9417 40.3527 49.6146 40.7746C49.3249 41.1604 48.7455 42.0394 47.8765 43.4117L46.7525 43.1864C47.3319 42.2431 47.6817 41.6785 47.8019 41.4927C48.4097 40.5493 48.809 40.0347 48.9997 39.9488C48.5548 39.8916 48.2014 39.713 47.9397 39.4131C47.65 39.0696 47.5158 38.73 47.5371 38.3945L47.5477 38.2333L47.579 38.0622C47.6358 37.7618 47.8033 37.4802 48.0817 37.2174C48.36 36.9546 48.7531 36.8241 49.261 36.826L52.427 36.8288ZM51.291 39.209V37.7306H49.5869C49.0359 37.7306 48.732 37.9627 48.6752 38.4268V38.4916C48.6752 38.6732 48.7619 38.838 48.9351 38.9844C49.1084 39.1308 49.354 39.2069 49.6721 39.2069L51.291 39.209Z" fill="#E72B5C"/>
<path d="M63.7064 42.5113C64.3354 42.5113 65.0421 42.2612 65.8265 41.7609L66.3675 42.4789C65.7522 42.9952 64.9782 43.3002 64.0457 43.3941H63.7064C62.9017 43.4438 62.1173 43.1691 61.3533 42.5697C60.6533 42.0206 60.3032 41.1857 60.3032 40.065C60.3032 39.002 60.6566 38.1849 61.3633 37.6138C62.0989 37.0215 62.8976 36.7399 63.7596 36.769H64.2786C64.4206 36.7978 64.6336 36.845 64.9255 36.9098C65.0239 36.9389 65.1865 37.0001 65.4133 37.0935C65.7412 37.2301 66.0538 37.4002 66.3462 37.6011L65.8052 38.367C65.106 37.9024 64.4384 37.6701 63.8022 37.6701C63.493 37.6634 63.1859 37.7214 62.9009 37.8402C62.6158 37.9591 62.3593 38.1362 62.1479 38.36C61.7029 38.8204 61.4804 39.3857 61.4804 40.0558C61.4804 40.7481 61.6783 41.3258 62.074 41.789C62.491 42.271 63.0352 42.5118 63.7064 42.5113Z" fill="#E72B5C"/>
<path d="M73.2263 37.7299H71.1587V43.3152H70.0227V37.7299H67.9551V36.8288H73.2241L73.2263 37.7299Z" fill="#E72B5C"/>
<path d="M81.2404 36.8288L76.4385 43.3152H75.1903L77.3104 40.3888L74.7025 36.8288H76.0515L77.9757 39.5307L79.8927 36.8288H81.2404Z" fill="#E72B5C"/>
<path d="M84.3573 44.8485L83.1808 44.9238L82.6931 43.109C82.6904 43.0044 82.7152 42.901 82.765 42.8088C82.8148 42.7167 82.8879 42.6389 82.9771 42.5831C83.1515 42.4647 83.3594 42.4046 83.5706 42.4113L85.0546 37.7299H84.3659V36.8288H88.67V42.417C88.8763 42.4144 89.0784 42.4743 89.2494 42.5887C89.4496 42.7168 89.5497 42.8851 89.5497 43.0921V43.1885L89.5284 43.3173L89.0726 44.9259L87.8996 44.8485L88.3555 43.3152H83.9029L84.3573 44.8485ZM87.5375 42.417V37.7299H86.2446C86.22 37.7315 86.196 37.738 86.1741 37.749C86.1521 37.76 86.1326 37.7753 86.1168 37.7939L86.0458 37.9347L84.7287 42.417H87.5375Z" fill="#E72B5C"/>
<path d="M96.8033 43.3152H95.6672V38.2466L92.6354 41.5271V43.3173H91.4994V36.8288H92.6354V40.0671L95.6672 36.8288H96.8033V43.3152Z" fill="#E72B5C"/>
<path d="M104.457 36.8288V43.3153H103.321V40.1101H102.283C102.183 40.1312 101.97 40.3527 101.644 40.7746C101.354 41.1604 100.774 42.0394 99.9047 43.4117L98.7814 43.1864C99.3608 42.2431 99.7106 41.6785 99.8308 41.4927C100.439 40.5493 100.838 40.0347 101.029 39.9488C100.584 39.8916 100.23 39.713 99.9686 39.4131C99.6789 39.0696 99.5447 38.73 99.566 38.3945L99.5759 38.2333L99.6079 38.0622C99.6638 37.7618 99.8313 37.4802 100.111 37.2174C100.39 36.9546 100.783 36.8241 101.29 36.826L104.457 36.8288ZM103.321 39.209V37.7306H101.617C101.066 37.7306 100.762 37.9627 100.706 38.4268V38.4916C100.706 38.6732 100.792 38.838 100.965 38.9844C101.139 39.1308 101.384 39.2069 101.702 39.2069L103.321 39.209Z" fill="#E72B5C"/>
<path d="M115.737 42.5113C116.366 42.5113 117.072 42.2612 117.857 41.7609L118.397 42.4789C117.782 42.9952 117.008 43.3002 116.076 43.3941H115.737C114.932 43.4438 114.147 43.1691 113.383 42.5697C112.683 42.0206 112.333 41.1857 112.333 40.065C112.333 39.002 112.687 38.1849 113.394 37.6138C114.129 37.0215 114.927 36.7399 115.789 36.769H116.309C116.451 36.7978 116.664 36.845 116.956 36.9098C117.054 36.9389 117.217 37.0001 117.443 37.0935C117.771 37.2303 118.084 37.4004 118.376 37.6011L117.835 38.367C117.136 37.9024 116.468 37.6701 115.832 37.6701C115.523 37.6635 115.216 37.7215 114.931 37.8404C114.646 37.9593 114.389 38.1363 114.178 38.36C113.733 38.8204 113.51 39.3857 113.51 40.0558C113.51 40.7481 113.708 41.3258 114.104 41.789C114.521 42.271 115.065 42.5118 115.737 42.5113Z" fill="#E72B5C"/>
<path d="M125.681 43.3152H124.545V37.7299H121.587V43.3152H120.451V36.8288H125.677L125.681 43.3152Z" fill="#E72B5C"/>
<path d="M131.219 43.3906C130.238 43.3906 129.423 43.0836 128.774 42.4698C128.125 41.8559 127.801 41.0566 127.803 40.072C127.803 39.0865 128.127 38.2837 128.776 37.6637C129.425 37.0438 130.237 36.7333 131.211 36.7324C132.213 36.7324 133.032 37.0358 133.667 37.6426C134.302 38.2494 134.619 39.0557 134.619 40.0615C134.619 41.0677 134.302 41.874 133.667 42.4803C133.032 43.0867 132.216 43.3901 131.219 43.3906ZM131.204 37.7003C130.541 37.7003 129.995 37.9249 129.566 38.374C129.136 38.8232 128.926 39.3863 128.935 40.0636C128.942 40.7558 129.155 41.3263 129.574 41.7749C129.992 42.2236 130.542 42.4484 131.222 42.4493C131.884 42.4493 132.427 42.2245 132.849 41.7749C133.271 41.3253 133.482 40.7622 133.48 40.0854C133.48 39.4011 133.267 38.8326 132.841 38.3797C132.415 37.9268 131.869 37.7003 131.204 37.7003Z" fill="#E72B5C"/>
<path d="M136.685 36.8288H139.292C139.949 36.8288 140.486 36.9539 140.903 37.204C141.405 37.5044 141.656 37.9655 141.656 38.5873C141.656 39.2237 141.451 39.7062 141.041 40.0347C140.673 40.3276 140.165 40.474 139.515 40.474H137.818V43.3152H136.682L136.685 36.8288ZM137.821 39.5743H139.463C139.728 39.5818 139.988 39.5064 140.206 39.3589C140.316 39.2829 140.406 39.1811 140.467 39.0626C140.528 38.9441 140.558 38.8125 140.556 38.6795C140.56 38.5367 140.528 38.395 140.461 38.2683C140.394 38.1416 140.295 38.0342 140.174 37.9566C139.932 37.7994 139.647 37.7204 139.358 37.7306H137.821V39.5743Z" fill="#E72B5C"/>
<path d="M148.653 37.7299H146.586V43.3152H145.45V37.7299H143.383V36.8288H148.651L148.653 37.7299Z" fill="#E72B5C"/>
<path d="M150.741 40.11V39.2089H151.822L152.766 36.8288H154.282L156.838 43.3152H155.576L154.369 40.11H152.546L151.316 43.3152H150.18L151.441 40.11H150.741ZM154.049 39.2089L153.487 37.751L152.914 39.2089H154.049Z" fill="#E72B5C"/>
<path d="M170.025 43.3152H168.889V38.2466L165.857 41.5271V43.3173H164.721V36.8288H165.857V40.0671L168.889 36.8288H170.025V43.3152Z" fill="#E72B5C"/>
<path d="M183.117 37.7299H181.049V43.3152H179.913V37.7299H177.846V36.8288H183.115L183.117 37.7299Z" fill="#E72B5C"/>
<path d="M185.205 40.11V39.2089H186.286L187.231 36.8288H188.747L191.303 43.3152H190.042L188.835 40.11H187.011L185.782 43.3152H184.646L185.907 40.11H185.205ZM188.512 39.2089L187.951 37.751L187.378 39.2089H188.512Z" fill="#E72B5C"/>
<path d="M198.711 43.3152H197.575V40.11H194.628V43.3152H193.492V40.11H192.983V39.2089H193.492V36.8288H194.628V39.2089H197.575V36.8288H198.711V43.3152Z" fill="#E72B5C"/>
<path d="M201.181 43.3152V36.8288H202.317V42.417H205.266V36.8288H206.402V42.3825C206.608 42.3768 206.811 42.433 206.985 42.5437C207.07 42.6031 207.141 42.6797 207.194 42.7684C207.247 42.857 207.281 42.9558 207.292 43.0583V43.1547L207.282 43.1864V43.2293L207.26 43.2941L206.805 44.9238L205.669 44.8485L206.124 43.3152H201.181Z" fill="#E72B5C"/>
<path d="M209.418 40.11V39.2089H210.5L211.443 36.8288H212.959L215.515 43.3152H214.253L213.046 40.11H211.223L209.993 43.3152H208.857L210.119 40.11H209.418ZM212.725 39.2089L212.164 37.751L211.592 39.2089H212.725Z" fill="#E72B5C"/>
</svg>
