<svg width="32" height="32" viewBox="0 0 32 32" fill="none" xmlns="http://www.w3.org/2000/svg">
<path d="M29.3333 11.4775V22.3335C29.3334 23.4403 28.9099 24.5053 28.1497 25.3098C27.3896 26.1143 26.3504 26.5975 25.2453 26.6602L25 26.6668H6.99996C5.89311 26.6669 4.82819 26.2434 4.02365 25.4833C3.21912 24.7231 2.73596 23.6839 2.67329 22.5788L2.66663 22.3335V11.4775L15.536 18.2188C15.6791 18.2938 15.8383 18.333 16 18.333C16.1616 18.333 16.3208 18.2938 16.464 18.2188L29.3333 11.4775ZM6.99996 5.3335H25C26.0741 5.33337 27.1099 5.73216 27.9067 6.45252C28.7034 7.17288 29.2042 8.16347 29.312 9.23216L16 16.2055L2.68796 9.23216C2.79132 8.20591 3.25736 7.25019 4.00229 6.53678C4.74723 5.82337 5.7222 5.39908 6.75196 5.34016L6.99996 5.3335H25H6.99996Z" fill="#E72B5C"/>
</svg>
