<svg width="32" height="32" viewBox="0 0 32 32" fill="none" xmlns="http://www.w3.org/2000/svg">
<path d="M16 14.6665C17.1046 14.6665 18 13.7711 18 12.6665C18 11.5619 17.1046 10.6665 16 10.6665C14.8954 10.6665 14 11.5619 14 12.6665C14 13.7711 14.8954 14.6665 16 14.6665Z" fill="#E72B5C"/>
<path d="M16 2.6665C13.1894 2.66636 10.4924 3.77552 8.49503 5.75289C6.49768 7.73027 5.36148 10.4161 5.33337 13.2265C5.33337 20.5332 14.7334 28.6665 15.1334 29.0132C15.3749 29.2197 15.6822 29.3333 16 29.3333C16.3178 29.3333 16.6252 29.2197 16.8667 29.0132C17.3334 28.6665 26.6667 20.5332 26.6667 13.2265C26.6386 10.4161 25.5024 7.73027 23.5051 5.75289C21.5077 3.77552 18.8106 2.66636 16 2.6665ZM16 17.3332C15.0771 17.3332 14.1748 17.0595 13.4074 16.5467C12.6399 16.0339 12.0418 15.3051 11.6886 14.4524C11.3354 13.5996 11.243 12.6613 11.423 11.7561C11.6031 10.8508 12.0476 10.0193 12.7002 9.36667C13.3529 8.71403 14.1844 8.26957 15.0896 8.08951C15.9949 7.90944 16.9332 8.00186 17.7859 8.35507C18.6386 8.70828 19.3675 9.30641 19.8802 10.0738C20.393 10.8413 20.6667 11.7435 20.6667 12.6665C20.6667 13.9042 20.175 15.0912 19.2999 15.9663C18.4247 16.8415 17.2377 17.3332 16 17.3332Z" fill="#E72B5C"/>
</svg>
