<svg width="46" height="40" viewBox="0 0 46 40" fill="none" xmlns="http://www.w3.org/2000/svg">
<g clip-path="url(#clip0)">
<path d="M19.6324 6.76228L17.9646 4.21045C6.4186 11.9297 0.00415039 21.3077 0.00415039 29.027C0.00415039 36.4912 5.52057 39.9999 10.2031 39.9999C16.1044 39.9999 20.2738 35.0238 20.2738 29.7926C20.2738 25.3907 17.4514 21.6267 13.6669 20.2232C12.5765 19.8404 11.5502 19.5215 11.5502 17.6714C11.5502 15.3109 13.2821 11.8022 19.6324 6.76228ZM45.0977 6.76228L43.43 4.21045C32.0122 11.9297 25.4695 21.3077 25.4695 29.027C25.4695 36.4912 31.1142 39.9999 35.7968 39.9999C41.7622 39.9999 45.9957 35.0238 45.9957 29.7926C45.9957 25.3907 43.1092 21.6267 39.1964 20.2232C38.106 19.8404 37.1438 19.5215 37.1438 17.6714C37.1438 15.3109 38.9398 11.8022 45.0977 6.76228Z" fill="#E0E0E0"/>
</g>
<defs>
<clipPath id="clip0">
<rect width="46" height="40" fill="white"/>
</clipPath>
</defs>
</svg>
